<?xml version="1.0" encoding="UTF-8" ?>
<!DOCTYPE svg PUBLIC "-//W3C//DTD SVG 1.1//EN" "http://www.w3.org/Graphics/SVG/1.1/DTD/svg11.dtd">
<svg width="512pt" height="512pt" viewBox="0 0 512 512" version="1.1" xmlns="http://www.w3.org/2000/svg">
<g id="#2D57A5ff">
<path fill="#2D57A5" opacity="1.00" d=" M 252.35 3.42 C 262.19 2.03 272.68 6.41 278.29 14.69 C 286.18 25.57 284.31 42.20 273.98 50.89 C 264.00 59.98 247.24 59.75 237.49 50.44 C 227.16 41.31 225.91 24.18 234.55 13.51 C 238.85 7.97 245.40 4.30 252.35 3.42 M 253.41 14.59 C 246.03 15.68 240.05 22.50 239.99 29.97 C 239.61 38.30 246.71 46.09 255.08 46.35 C 264.46 47.21 273.17 38.24 271.88 28.87 C 271.36 19.94 262.16 12.92 253.41 14.59 Z" />
<path fill="#2D57A5" opacity="1.00" d=" M 250.36 67.18 C 254.37 67.17 258.37 67.19 262.37 67.18 C 262.38 71.20 262.40 75.22 262.42 79.24 C 258.40 79.17 254.37 79.26 250.34 79.07 C 250.44 75.11 250.36 71.15 250.36 67.18 Z" />
<path fill="#2D57A5" opacity="1.00" d=" M 409.53 71.69 C 418.17 70.45 427.55 72.97 433.72 79.33 C 443.02 88.53 444.40 104.81 436.06 115.06 C 430.23 122.00 421.12 126.36 411.99 125.50 C 405.62 124.91 399.50 122.28 394.48 118.36 C 386.39 110.15 384.25 96.67 389.34 86.32 C 393.02 78.41 400.96 72.93 409.53 71.69 M 408.36 82.50 C 403.07 84.29 399.32 89.23 398.46 94.67 C 396.85 102.28 401.34 110.89 409.04 112.96 C 418.63 116.07 429.57 107.96 429.60 97.93 C 430.03 87.40 418.33 78.52 408.36 82.50 Z" />
<path fill="#2D57A5" opacity="1.00" d=" M 89.26 72.46 C 97.43 70.27 106.66 71.49 113.57 76.50 C 122.74 82.93 126.88 95.38 123.80 106.08 C 121.14 116.43 111.23 123.93 100.88 125.36 C 92.55 126.64 84.44 122.81 77.99 117.86 C 69.35 109.90 67.02 95.91 72.70 85.61 C 76.22 79.29 82.24 74.32 89.26 72.46 M 92.40 82.49 C 86.89 84.32 83.38 89.60 81.91 94.98 C 79.90 104.31 88.42 114.21 97.96 113.57 C 106.80 113.37 114.60 104.93 113.52 96.03 C 112.63 86.31 101.72 78.83 92.40 82.49 Z" />
<path fill="#2D57A5" opacity="1.00" d=" M 250.39 100.79 C 250.42 96.76 250.31 92.72 250.45 88.69 C 254.42 88.83 258.39 88.81 262.37 88.81 C 262.41 92.75 262.34 96.69 262.53 100.62 C 258.49 101.00 254.43 100.73 250.39 100.79 Z" />
<path fill="#2D57A5" opacity="1.00" d=" M 250.37 110.37 C 254.38 110.40 258.38 110.37 262.39 110.43 C 262.40 114.41 262.44 118.39 262.38 122.38 C 258.38 122.44 254.40 122.41 250.41 122.38 C 250.38 118.37 250.40 114.37 250.37 110.37 Z" />
<path fill="#2D57A5" opacity="1.00" d=" M 126.47 118.19 C 129.31 121.02 132.16 123.85 135.00 126.67 C 132.36 129.34 129.70 132.00 127.03 134.65 C 124.25 131.77 121.40 128.95 118.59 126.09 C 121.20 123.44 123.85 120.83 126.47 118.19 Z" />
<path fill="#2D57A5" opacity="1.00" d=" M 376.69 126.79 C 379.35 123.77 382.32 121.05 385.14 118.18 C 387.98 121.01 390.82 123.85 393.67 126.69 C 390.81 129.50 387.99 132.36 385.14 135.18 C 382.35 132.35 379.59 129.49 376.69 126.79 Z" />
<path fill="#2D57A5" opacity="1.00" d=" M 142.48 134.04 C 145.21 136.59 147.75 139.34 150.42 141.96 C 147.80 144.62 145.16 147.26 142.50 149.88 C 139.89 147.22 137.20 144.65 134.60 141.98 C 137.21 139.32 139.88 136.72 142.48 134.04 Z" />
<path fill="#2D57A5" opacity="1.00" d=" M 362.08 141.39 C 364.72 138.76 367.34 136.11 370.00 133.50 C 372.84 136.32 375.66 139.17 378.53 141.96 C 375.89 144.63 373.24 147.27 370.59 149.93 C 367.75 147.09 364.91 144.25 362.08 141.39 Z" />
<path fill="#2D57A5" opacity="1.00" d=" M 346.93 156.59 C 349.63 154.08 352.18 151.40 354.83 148.83 C 357.47 151.48 360.12 154.12 362.77 156.77 C 360.12 159.40 357.47 162.04 354.84 164.69 C 352.22 161.97 349.41 159.44 346.93 156.59 Z" />
<path fill="#2D57A5" opacity="1.00" d=" M 149.53 157.87 C 152.32 155.01 155.15 152.19 157.99 149.38 C 160.62 152.01 163.28 154.62 165.93 157.24 C 163.11 160.10 160.25 162.92 157.44 165.77 C 154.75 163.19 152.17 160.50 149.53 157.87 Z" />
<path fill="#2D57A5" opacity="1.00" d=" M 129.62 247.22 C 129.54 228.00 129.64 208.77 129.57 189.55 C 213.83 189.66 298.10 189.54 382.37 189.61 C 382.40 208.79 382.43 227.98 382.36 247.17 C 366.10 247.26 349.85 247.11 333.60 247.23 C 333.59 253.34 333.57 259.45 333.61 265.55 C 349.87 265.67 366.12 265.51 382.38 265.62 C 382.40 284.80 382.42 303.98 382.37 323.16 C 298.12 323.21 213.86 323.21 129.61 323.16 C 129.57 303.98 129.58 284.79 129.61 265.61 C 145.87 265.55 162.13 265.63 178.40 265.57 C 178.34 259.43 178.43 253.30 178.38 247.16 C 162.12 247.25 145.87 247.13 129.62 247.22 M 141.61 200.80 C 141.58 212.26 141.60 223.71 141.60 235.17 C 218.13 235.20 294.65 235.18 371.18 235.18 C 371.18 223.72 371.18 212.26 371.18 200.81 C 294.66 200.79 218.13 200.80 141.61 200.80 M 190.41 246.41 C 190.42 252.55 190.34 258.68 190.41 264.82 C 234.13 264.78 277.86 264.77 321.59 264.82 C 321.54 258.68 321.62 252.53 321.60 246.39 C 277.87 246.42 234.14 246.36 190.41 246.41 M 141.63 276.81 C 141.55 288.27 141.62 299.73 141.60 311.18 C 218.12 311.17 294.64 311.21 371.17 311.17 C 371.21 299.71 371.17 288.26 371.18 276.80 C 294.66 276.80 218.15 276.79 141.63 276.81 Z" />
<path fill="#2D57A5" opacity="1.00" d=" M 160.82 212.02 C 178.94 211.97 197.06 211.97 215.18 212.02 C 215.17 216.03 215.17 220.04 215.23 224.05 C 197.09 223.94 178.95 224.07 160.81 223.99 C 160.73 220.00 160.78 216.01 160.82 212.02 Z" />
<path fill="#2D57A5" opacity="1.00" d=" M 284.00 212.00 C 288.00 211.92 292.00 211.99 296.00 212.01 C 295.99 216.03 296.00 220.04 296.05 224.05 C 292.04 224.00 288.03 223.99 284.01 224.00 C 283.98 220.00 283.92 216.00 284.00 212.00 Z" />
<path fill="#2D57A5" opacity="1.00" d=" M 315.18 212.01 C 319.20 212.00 323.21 212.02 327.23 211.96 C 327.18 215.97 327.17 219.98 327.18 223.99 C 323.17 223.99 319.17 223.99 315.18 224.05 C 315.19 220.04 315.19 216.02 315.18 212.01 Z" />
<path fill="#2D57A5" opacity="1.00" d=" M 345.51 212.05 C 349.54 211.86 353.57 212.03 357.60 212.02 C 357.58 216.01 357.59 220.00 357.64 223.99 C 353.60 224.05 349.56 224.06 345.53 223.89 C 345.65 219.94 345.59 216.00 345.51 212.05 Z" />
<path fill="#2D57A5" opacity="1.00" d=" M 23.50 229.65 C 35.69 226.25 49.66 232.57 54.94 244.11 C 60.01 254.55 57.68 268.10 49.01 275.93 C 38.96 285.69 21.32 285.54 11.44 275.62 C 1.45 266.37 0.44 249.45 9.06 238.96 C 12.68 234.38 17.85 231.08 23.50 229.65 M 27.23 240.30 C 19.97 241.66 14.25 248.57 14.39 255.97 C 14.19 264.34 21.55 272.00 29.96 271.95 C 39.35 272.58 47.75 263.34 46.25 254.04 C 45.43 245.09 35.98 238.29 27.23 240.30 Z" />
<path fill="#2D57A5" opacity="1.00" d=" M 475.29 229.51 C 484.16 227.41 494.00 229.94 500.55 236.35 C 510.67 245.78 511.55 263.05 502.50 273.51 C 494.04 284.02 477.51 286.27 466.42 278.66 C 455.21 271.55 451.21 255.82 457.06 244.02 C 460.51 236.75 467.41 231.21 475.29 229.51 M 477.39 240.57 C 469.91 242.43 464.65 250.27 465.71 257.90 C 466.52 266.58 475.45 273.39 484.05 271.82 C 492.63 270.59 499.18 261.59 497.32 253.04 C 495.85 244.16 486.06 237.90 477.39 240.57 Z" />
<path fill="#2D57A5" opacity="1.00" d=" M 67.18 250.36 C 71.13 250.35 75.07 250.47 79.02 250.31 C 79.33 254.34 79.14 258.38 79.25 262.42 C 75.22 262.41 71.20 262.38 67.18 262.37 C 67.19 258.37 67.17 254.36 67.18 250.36 Z" />
<path fill="#2D57A5" opacity="1.00" d=" M 88.70 250.43 C 92.73 250.32 96.76 250.42 100.79 250.39 C 100.80 254.38 100.80 258.38 100.82 262.37 C 96.82 262.46 92.81 262.38 88.81 262.37 C 88.81 258.39 88.82 254.41 88.70 250.43 Z" />
<path fill="#2D57A5" opacity="1.00" d=" M 110.37 250.37 C 114.37 250.40 118.38 250.38 122.38 250.41 C 122.41 254.40 122.44 258.39 122.38 262.38 C 118.39 262.44 114.40 262.40 110.42 262.39 C 110.38 258.38 110.40 254.37 110.37 250.37 Z" />
<path fill="#2D57A5" opacity="1.00" d=" M 389.55 250.37 C 393.56 250.39 397.57 250.39 401.58 250.40 C 401.59 254.40 401.64 258.40 401.58 262.40 C 397.59 262.43 393.60 262.40 389.61 262.36 C 389.59 258.36 389.60 254.37 389.55 250.37 Z" />
<path fill="#2D57A5" opacity="1.00" d=" M 411.19 250.37 C 415.20 250.46 419.23 250.25 423.24 250.52 C 423.18 254.47 423.25 258.42 423.16 262.37 C 419.17 262.44 415.17 262.43 411.18 262.36 C 411.18 258.36 411.18 254.37 411.19 250.37 Z" />
<path fill="#2D57A5" opacity="1.00" d=" M 432.89 250.35 C 436.85 250.43 440.82 250.38 444.79 250.39 C 444.82 254.38 444.80 258.37 444.80 262.37 C 440.80 262.41 436.80 262.44 432.81 262.38 C 432.83 258.37 432.72 254.35 432.89 250.35 Z" />
<path fill="#2D57A5" opacity="1.00" d=" M 160.81 288.00 C 178.93 287.94 197.05 288.05 215.17 287.96 C 215.18 291.97 215.18 295.98 215.18 299.99 C 197.03 300.05 178.89 299.97 160.75 300.03 C 160.80 296.02 160.81 292.01 160.81 288.00 Z" />
<path fill="#2D57A5" opacity="1.00" d=" M 284.01 288.01 C 288.00 288.00 292.00 287.93 295.99 287.99 C 296.00 291.99 296.00 295.99 296.00 300.00 C 291.99 300.00 287.99 300.00 283.99 299.99 C 283.92 296.00 284.01 292.00 284.01 288.01 Z" />
<path fill="#2D57A5" opacity="1.00" d=" M 315.18 288.01 C 319.18 287.99 323.18 288.00 327.18 288.01 C 327.26 292.00 327.20 295.99 327.17 299.98 C 323.17 300.01 319.17 300.09 315.18 299.98 C 315.19 295.99 315.19 292.00 315.18 288.01 Z" />
<path fill="#2D57A5" opacity="1.00" d=" M 345.59 288.05 C 349.59 287.95 353.60 287.92 357.60 288.03 C 357.58 292.01 357.58 296.00 357.60 299.98 C 353.57 299.98 349.55 300.09 345.52 299.89 C 345.61 295.94 345.56 291.99 345.59 288.05 Z" />
<path fill="#2D57A5" opacity="1.00" d=" M 149.50 355.26 C 152.32 352.43 155.14 349.60 157.97 346.80 C 160.63 349.44 163.29 352.08 165.93 354.75 C 163.14 357.54 160.28 360.26 157.61 363.17 C 154.70 360.75 152.21 357.89 149.50 355.26 Z" />
<path fill="#2D57A5" opacity="1.00" d=" M 346.73 355.12 C 349.56 352.28 352.39 349.46 355.22 346.62 C 357.84 349.33 360.63 351.88 363.12 354.71 C 360.24 357.42 357.50 360.28 354.69 363.06 C 352.03 360.42 349.39 357.75 346.73 355.12 Z" />
<path fill="#2D57A5" opacity="1.00" d=" M 134.08 369.41 C 136.72 366.80 139.34 364.16 141.99 361.55 C 144.65 364.16 147.26 366.82 149.95 369.41 C 147.34 372.11 144.67 374.75 142.00 377.40 C 139.38 374.72 136.71 372.08 134.08 369.41 Z" />
<path fill="#2D57A5" opacity="1.00" d=" M 362.12 369.41 C 364.75 366.78 367.36 364.14 370.02 361.54 C 372.90 364.29 375.72 367.11 378.48 369.99 C 375.87 372.64 373.23 375.26 370.60 377.89 C 367.74 375.10 364.91 372.28 362.12 369.41 Z" />
<path fill="#2D57A5" opacity="1.00" d=" M 118.36 385.31 C 121.21 382.49 123.97 379.59 126.90 376.86 C 129.51 379.53 132.17 382.14 134.80 384.78 C 131.89 387.56 129.24 390.63 126.13 393.19 C 123.62 390.48 120.95 387.94 118.36 385.31 Z" />
<path fill="#2D57A5" opacity="1.00" d=" M 376.63 385.34 C 379.22 382.66 381.91 380.06 384.50 377.37 C 387.39 380.18 390.20 383.07 393.07 385.90 C 390.42 388.54 387.78 391.19 385.11 393.82 C 382.31 390.96 379.49 388.13 376.63 385.34 Z" />
<path fill="#2D57A5" opacity="1.00" d=" M 93.45 387.71 C 100.50 386.72 108.04 388.08 113.95 392.18 C 121.82 397.54 126.35 407.38 125.48 416.83 C 123.71 431.60 108.77 443.58 93.90 441.36 C 79.86 439.87 69.08 425.83 70.46 411.92 C 70.92 399.60 81.55 389.40 93.45 387.71 M 93.28 399.26 C 86.89 401.54 82.05 408.05 82.40 414.93 C 82.68 423.65 91.01 431.61 99.90 430.29 C 110.28 429.50 117.82 416.63 112.65 407.38 C 109.29 400.46 100.60 396.49 93.28 399.26 Z" />
<path fill="#2D57A5" opacity="1.00" d=" M 409.58 387.70 C 416.11 386.73 423.00 387.99 428.70 391.36 C 437.78 396.82 442.94 408.02 441.27 418.47 C 440.19 424.34 436.96 429.59 433.08 434.03 C 425.49 442.08 412.79 444.70 402.66 440.19 C 389.67 434.60 383.36 418.18 388.19 405.11 C 391.25 395.82 399.96 389.00 409.58 387.70 M 411.43 398.67 C 404.31 400.09 398.51 406.71 398.38 414.03 C 398.15 423.11 406.73 431.70 415.99 430.28 C 423.81 429.62 429.57 422.41 430.38 414.94 C 430.91 405.21 421.00 396.58 411.43 398.67 Z" />
<path fill="#2D57A5" opacity="1.00" d=" M 250.40 401.58 C 250.39 397.57 250.38 393.55 250.38 389.54 C 254.38 389.61 258.38 389.60 262.37 389.60 C 262.39 393.59 262.43 397.58 262.40 401.58 C 258.40 401.64 254.40 401.59 250.40 401.58 Z" />
<path fill="#2D57A5" opacity="1.00" d=" M 250.38 411.19 C 254.37 411.18 258.36 411.19 262.35 411.17 C 262.43 415.17 262.43 419.16 262.37 423.16 C 258.36 423.20 254.34 423.34 250.33 423.04 C 250.44 419.09 250.39 415.14 250.38 411.19 Z" />
<path fill="#2D57A5" opacity="1.00" d=" M 250.39 444.78 C 250.45 440.76 250.24 436.73 250.53 432.72 C 254.47 432.86 258.42 432.79 262.37 432.81 C 262.45 436.80 262.41 440.80 262.36 444.80 C 258.37 444.80 254.38 444.82 250.39 444.78 Z" />
<path fill="#2D57A5" opacity="1.00" d=" M 247.41 455.72 C 259.63 451.53 274.40 457.23 280.12 468.93 C 286.53 480.75 282.57 497.02 271.14 504.26 C 261.59 510.75 247.95 510.19 238.97 502.93 C 230.18 496.12 226.65 483.72 230.07 473.21 C 232.53 465.01 239.25 458.27 247.41 455.72 M 250.37 466.62 C 244.10 468.87 239.74 475.36 240.02 482.02 C 239.95 491.12 248.97 498.85 257.95 497.48 C 266.99 496.53 273.91 486.90 271.60 478.04 C 269.73 468.90 259.07 463.01 250.37 466.62 Z" />
</g>
</svg>
