<?xml version="1.0" encoding="UTF-8" ?>
<!DOCTYPE svg PUBLIC "-//W3C//DTD SVG 1.1//EN" "http://www.w3.org/Graphics/SVG/1.1/DTD/svg11.dtd">
<svg width="512pt" height="512pt" viewBox="0 0 512 512" version="1.1" xmlns="http://www.w3.org/2000/svg">
<g id="#2D57A5ff">
<path fill="#2D57A5" opacity="1.00" d=" M 274.36 55.95 C 274.49 38.87 274.23 21.79 274.50 4.72 C 278.45 4.85 282.41 4.79 286.37 4.81 C 286.44 21.89 286.34 38.96 286.42 56.03 C 282.40 56.05 278.38 56.01 274.36 55.95 Z" />
<path fill="#2D57A5" opacity="1.00" d=" M 144.65 42.91 C 148.08 40.89 151.54 38.91 155.00 36.92 C 163.61 51.66 172.02 66.51 180.65 81.24 C 177.19 83.27 173.71 85.26 170.24 87.28 C 161.70 72.49 153.13 57.72 144.65 42.91 Z" />
<path fill="#2D57A5" opacity="1.00" d=" M 380.67 81.63 C 389.26 66.86 397.69 51.99 406.41 37.29 C 409.76 39.32 413.12 41.34 416.63 43.11 C 408.38 58.10 399.50 72.75 391.09 87.66 C 387.63 85.62 384.16 83.61 380.67 81.63 Z" />
<path fill="#2D57A5" opacity="1.00" d=" M 434.39 102.38 C 448.25 102.36 462.11 102.44 475.98 102.35 C 476.07 116.25 475.94 130.15 476.05 144.05 C 472.03 144.00 468.02 143.99 464.02 143.99 C 463.91 136.80 464.05 129.60 463.99 122.41 C 451.98 134.34 440.09 146.38 428.05 158.28 C 427.96 228.45 428.04 298.62 428.00 368.79 C 442.27 362.40 456.60 356.15 470.85 349.70 C 476.45 347.17 482.88 346.48 488.86 347.96 C 501.33 351.00 511.19 362.51 512.00 375.36 L 512.00 376.65 C 511.47 384.19 507.90 391.33 502.89 396.91 C 498.46 401.91 492.06 404.23 486.35 407.37 C 431.69 436.04 377.01 464.69 322.33 493.34 C 313.36 497.78 304.85 503.57 294.89 505.61 C 283.24 508.04 270.93 507.74 259.50 504.35 C 224.66 492.93 189.90 481.21 155.03 469.89 C 143.66 469.19 132.21 469.80 120.80 469.60 C 120.79 476.26 120.82 482.92 120.79 489.59 C 87.72 489.59 54.66 489.64 21.60 489.56 C 21.61 485.56 21.59 481.56 21.55 477.57 C 50.90 477.63 80.25 477.56 109.60 477.60 C 109.58 425.86 109.59 374.13 109.60 322.39 C 73.07 322.39 36.53 322.40 0.00 322.38 L 0.00 310.40 C 40.26 310.38 80.52 310.38 120.78 310.39 C 120.83 317.06 120.78 323.72 120.81 330.39 C 135.87 330.39 150.94 330.38 166.01 330.39 C 172.87 330.40 179.67 331.41 186.38 332.72 C 186.39 315.95 186.39 299.19 186.38 282.42 C 178.11 290.64 169.88 298.88 161.66 307.14 C 158.89 304.58 156.24 301.90 153.63 299.18 C 190.40 262.38 227.19 225.59 264.00 188.83 C 283.48 208.24 302.92 227.71 322.36 247.18 C 366.94 202.96 411.46 158.67 455.98 114.39 C 448.79 114.40 441.60 114.41 434.41 114.38 C 434.38 110.38 434.36 106.38 434.39 102.38 M 370.38 216.02 C 370.41 275.48 370.38 334.93 370.40 394.38 C 385.56 387.86 400.55 380.93 415.81 374.62 C 416.25 370.08 415.83 365.52 415.98 360.97 C 416.00 297.45 415.98 233.93 415.99 170.40 C 400.78 185.60 385.57 200.80 370.38 216.02 M 256.07 213.91 C 255.96 263.66 255.99 313.42 256.05 363.17 C 258.29 363.96 260.54 364.97 262.98 364.83 C 275.83 364.80 288.69 364.72 301.55 364.85 C 301.66 324.55 301.54 284.24 301.61 243.94 C 301.94 242.30 300.48 241.36 299.53 240.35 C 287.67 228.79 275.85 217.17 263.99 205.60 C 261.44 208.44 258.20 210.77 256.07 213.91 M 198.45 270.24 C 198.33 292.10 198.40 313.96 198.42 335.82 C 201.85 336.61 204.89 338.45 208.06 339.90 C 220.04 345.49 231.98 351.16 243.96 356.76 C 244.03 312.77 243.98 268.79 243.98 224.80 C 228.79 239.93 213.71 255.17 198.45 270.24 M 322.46 263.97 C 319.12 260.94 316.12 257.56 312.83 254.49 C 312.77 290.99 312.81 327.49 312.80 363.99 C 319.87 363.93 326.94 364.07 334.01 363.97 C 343.57 363.86 352.78 368.80 358.38 376.48 C 358.40 326.72 358.38 276.97 358.38 227.21 C 346.39 239.44 334.39 251.68 322.46 263.97 M 120.81 341.60 C 120.80 379.99 120.80 418.37 120.81 456.76 C 132.21 456.86 143.61 456.74 155.01 456.80 C 158.09 456.81 160.90 458.24 163.79 459.12 C 196.51 470.04 229.23 480.93 261.95 491.85 C 276.22 496.75 292.52 496.04 305.98 489.01 C 366.11 457.47 426.27 425.98 486.39 394.41 C 489.46 392.96 492.91 391.93 495.16 389.21 C 499.72 383.83 501.99 375.79 498.73 369.19 C 494.98 360.79 484.05 357.48 475.82 360.89 C 433.48 379.48 391.18 398.18 348.83 416.75 C 344.74 418.47 340.47 420.07 335.96 419.99 C 307.96 420.03 279.96 420.02 251.96 420.00 C 248.36 420.06 244.52 419.47 241.22 421.28 C 235.95 423.31 231.35 427.73 230.94 433.62 C 227.00 433.61 223.06 433.61 219.12 433.57 C 219.00 422.71 227.72 414.09 237.36 410.55 C 242.56 408.06 248.40 408.91 253.95 408.78 C 281.31 408.79 308.67 408.84 336.03 408.75 C 344.94 408.57 352.41 399.73 351.06 390.90 C 350.54 383.61 344.38 377.07 336.95 376.85 C 310.31 376.67 283.65 376.95 257.01 376.71 C 238.13 368.20 219.50 359.06 200.74 350.27 C 189.96 344.87 178.03 341.72 165.96 341.60 C 150.91 341.60 135.86 341.59 120.81 341.60 Z" />
<path fill="#2D57A5" opacity="1.00" d=" M 50.97 140.82 C 52.96 137.37 54.94 133.91 56.96 130.47 C 71.75 138.96 86.51 147.51 101.28 156.04 C 99.34 159.56 97.31 163.03 95.27 166.50 C 80.57 157.83 65.69 149.45 50.97 140.82 Z" />
<path fill="#2D57A5" opacity="1.00" d=" M 18.29 260.87 C 35.33 260.65 52.38 260.93 69.41 260.72 C 69.79 264.73 69.52 268.77 69.62 272.80 C 52.55 272.79 35.47 272.82 18.39 272.79 C 18.37 268.81 18.46 264.84 18.29 260.87 Z" />
<path fill="#2D57A5" opacity="1.00" d=" M 52.03 443.18 C 56.01 443.17 60.00 443.18 63.99 443.18 C 64.00 447.19 63.98 451.21 64.06 455.23 C 60.04 455.17 56.03 455.18 52.02 455.17 C 51.97 451.17 51.92 447.17 52.03 443.18 Z" />
<path fill="#2D57A5" opacity="1.00" d=" M 77.57 443.17 C 81.58 443.19 85.58 443.18 89.59 443.20 C 89.60 447.19 89.64 451.18 89.58 455.17 C 85.61 455.25 81.64 455.20 77.67 455.18 C 77.54 451.18 77.63 447.17 77.57 443.17 Z" />
</g>
</svg>
