<?xml version="1.0" encoding="UTF-8" ?>
<!DOCTYPE svg PUBLIC "-//W3C//DTD SVG 1.1//EN" "http://www.w3.org/Graphics/SVG/1.1/DTD/svg11.dtd">
<svg width="512pt" height="512pt" viewBox="0 0 512 512" version="1.1" xmlns="http://www.w3.org/2000/svg">
<g id="#081635ff">
<path fill="#081635" opacity="1.00" d=" M 105.82 31.89 C 137.56 13.48 174.27 3.70 210.98 4.12 C 246.03 4.53 280.92 13.22 312.27 28.85 C 319.86 32.68 327.32 36.86 334.06 42.07 C 340.05 46.63 340.94 55.12 339.80 62.05 C 338.63 68.95 334.57 76.08 327.58 78.35 C 319.98 81.20 311.79 78.45 305.02 74.76 C 295.14 69.10 284.12 65.84 273.18 62.90 C 249.94 56.91 224.87 54.86 201.68 62.16 C 205.24 65.56 208.10 70.00 208.16 75.08 C 208.30 79.78 207.58 85.49 203.30 88.29 C 196.35 93.22 188.79 97.20 181.40 101.41 C 153.52 116.73 125.15 131.14 96.89 145.74 C 85.93 143.34 74.96 141.01 64.00 138.65 C 62.73 141.02 61.85 143.90 59.44 145.40 C 56.39 147.05 52.65 147.92 49.29 146.68 C 33.06 141.68 16.50 137.85 0.00 133.88 L 0.00 133.62 C 1.08 129.50 2.17 125.39 3.27 121.29 C 19.88 125.32 36.54 129.29 52.78 134.67 C 59.89 101.82 66.95 68.97 74.07 36.12 C 49.25 33.10 24.68 28.36 0.00 24.40 L 0.00 23.98 C 0.79 20.22 1.63 16.47 2.33 12.70 C 23.36 16.88 44.58 20.10 65.80 23.17 C 71.69 24.04 78.31 23.84 83.06 28.02 C 85.23 30.51 85.32 34.01 85.39 37.15 C 88.49 37.92 91.79 38.61 94.93 37.61 C 98.89 36.40 102.27 33.93 105.82 31.89 M 188.07 17.73 C 159.82 20.74 132.43 30.48 108.19 45.22 C 101.05 50.06 91.81 52.76 83.42 49.72 C 78.02 75.72 72.36 101.67 66.96 127.66 C 76.66 129.52 86.25 131.99 95.96 133.76 C 105.73 129.18 115.03 123.58 124.72 118.81 C 147.85 106.34 171.45 94.66 193.97 81.09 C 197.74 79.63 196.47 74.93 195.11 72.13 C 192.92 69.69 189.15 69.36 186.15 70.18 C 174.28 76.25 162.35 82.24 150.40 88.17 C 148.60 84.52 146.79 80.88 144.94 77.27 C 157.16 71.02 169.51 65.04 181.72 58.76 C 198.19 49.62 217.26 46.03 235.97 46.42 C 262.96 47.14 289.49 54.64 313.76 66.26 C 317.17 67.66 321.30 68.97 324.71 66.86 C 328.14 64.01 328.86 59.00 327.86 54.85 C 327.29 52.18 324.40 51.15 322.42 49.70 C 282.53 25.35 234.80 12.72 188.07 17.73 Z" />
<path fill="#081635" opacity="1.00" d=" M 46.32 46.94 C 50.19 47.70 54.03 48.59 57.88 49.45 C 56.88 53.52 56.08 57.63 55.20 61.73 C 51.35 60.89 47.49 60.07 43.64 59.20 C 44.52 55.11 45.45 51.03 46.32 46.94 Z" />
<path fill="#081635" opacity="1.00" d=" M 453.75 365.87 C 457.81 364.19 462.31 365.15 466.34 366.40 C 481.40 370.92 496.74 374.37 512.00 378.12 L 512.00 378.35 C 510.90 382.45 509.80 386.56 508.80 390.69 C 492.15 386.67 475.71 381.89 459.20 377.33 C 452.31 410.35 445.65 443.42 438.67 476.42 C 463.18 479.97 487.62 483.94 512.00 488.28 L 512.00 492.43 C 511.51 494.96 510.95 497.48 510.49 500.02 C 485.31 496.19 460.28 491.34 435.03 488.05 C 428.95 487.08 426.11 480.43 426.59 474.85 C 421.87 473.30 416.58 473.60 412.41 476.44 C 380.88 496.01 344.14 507.33 306.99 507.99 C 268.51 508.57 230.03 498.88 196.03 480.94 C 189.34 477.16 182.39 473.49 176.79 468.14 C 171.48 461.86 171.66 452.53 174.24 445.12 C 176.73 438.06 183.19 431.93 191.00 431.96 C 198.66 431.46 205.70 435.04 212.12 438.79 C 222.47 443.60 233.50 446.87 244.60 449.51 C 266.30 454.45 289.51 455.88 310.97 449.04 C 304.29 443.14 302.41 432.67 307.09 425.01 C 309.10 422.67 311.88 421.19 314.44 419.52 C 331.61 409.00 349.58 399.85 367.30 390.30 C 383.19 381.95 399.15 373.75 415.06 365.44 C 426.00 367.85 436.96 370.23 447.95 372.47 C 449.44 369.97 450.86 367.01 453.75 365.87 M 323.01 429.84 C 320.34 431.78 315.83 432.94 315.95 436.97 C 316.44 441.87 322.46 444.18 326.66 442.60 C 334.90 438.14 343.35 434.11 351.70 429.88 C 355.33 428.20 358.74 426.02 362.58 424.84 C 364.22 427.97 366.08 430.98 367.87 434.03 C 353.89 440.98 339.82 447.75 326.01 455.02 C 303.36 465.79 277.29 466.82 252.88 462.77 C 234.30 459.67 216.13 453.98 199.18 445.76 C 194.94 444.01 189.00 442.60 185.71 446.78 C 183.08 450.83 182.28 458.12 187.21 460.76 C 203.09 470.91 220.34 478.88 238.26 484.69 C 280.02 498.58 326.54 499.36 368.01 483.96 C 381.38 479.10 394.19 472.74 406.29 465.28 C 412.82 461.24 421.12 459.61 428.47 462.28 C 434.35 436.87 440.07 411.42 445.81 385.98 C 436.15 383.79 426.45 381.83 416.80 379.64 C 385.48 396.26 353.84 412.32 323.01 429.84 Z" />
<path fill="#081635" opacity="1.00" d=" M 456.53 450.96 C 460.47 451.21 464.28 452.29 468.14 453.10 C 467.39 457.12 466.41 461.09 465.60 465.10 C 461.65 464.76 457.82 463.74 453.97 462.91 C 454.85 458.93 455.82 454.97 456.53 450.96 Z" />
</g>
</svg>
