<?xml version="1.0" encoding="UTF-8" ?>
<!DOCTYPE svg PUBLIC "-//W3C//DTD SVG 1.1//EN" "http://www.w3.org/Graphics/SVG/1.1/DTD/svg11.dtd">
<svg width="353pt" height="353pt" viewBox="0 0 353 353" version="1.1" xmlns="http://www.w3.org/2000/svg">
<g id="#010101ff">
<path fill="#010101" opacity="1.00" d=" M 121.55 0.00 L 135.45 0.00 C 151.50 1.43 167.46 4.99 182.04 11.98 C 213.27 26.49 238.14 54.08 249.20 86.71 C 253.77 100.29 256.53 114.64 255.99 129.00 C 255.91 156.40 246.30 183.57 229.56 205.22 C 233.32 209.85 237.64 214.07 242.14 217.98 C 244.88 217.22 246.65 214.13 248.99 212.44 C 263.74 226.54 277.89 241.25 292.41 255.59 C 307.77 270.90 323.03 286.30 338.45 301.55 C 339.54 302.93 341.55 304.00 341.77 305.82 C 339.97 308.00 337.90 309.91 336.00 311.99 C 341.57 318.86 350.08 323.67 353.00 332.41 L 353.00 338.49 C 350.46 343.23 346.60 347.15 342.39 350.42 C 337.27 353.54 329.93 352.61 325.79 348.24 C 321.36 343.97 317.07 339.55 312.72 335.19 C 310.59 337.34 308.36 339.38 306.13 341.42 C 293.83 329.54 281.92 317.26 269.77 305.23 C 251.00 286.35 232.00 267.67 213.36 248.68 C 214.16 245.99 217.33 244.20 219.14 241.96 C 215.12 237.25 210.62 232.95 206.07 228.77 C 185.20 244.84 159.35 254.57 132.96 255.27 C 107.55 256.31 81.78 249.41 60.45 235.55 C 41.98 224.11 26.77 207.66 16.28 188.69 C 4.75 167.86 -0.61 143.73 0.96 119.98 C 2.12 96.87 10.28 74.34 23.35 55.32 C 41.33 29.17 69.29 10.14 100.26 3.16 C 107.22 1.23 114.45 1.04 121.55 0.00 M 118.36 5.43 C 96.32 7.11 74.78 14.92 56.83 27.83 C 34.10 43.92 17.25 68.10 10.01 95.00 C 3.99 116.94 4.26 140.54 10.54 162.39 C 20.81 198.48 48.75 228.92 83.86 242.17 C 107.28 251.29 133.52 252.76 157.92 246.87 C 181.17 241.19 202.66 228.50 218.80 210.83 C 236.71 191.57 247.86 166.29 250.39 140.14 C 253.18 113.28 246.93 85.45 232.49 62.58 C 219.46 41.51 199.79 24.66 177.01 14.95 C 158.63 7.03 138.29 3.77 118.36 5.43 M 210.16 225.70 C 214.14 229.90 218.37 233.86 222.35 238.06 C 224.50 237.09 225.95 235.19 227.59 233.58 C 231.28 229.73 235.22 226.13 238.84 222.21 C 234.67 217.98 230.76 213.42 226.06 209.78 C 221.11 215.43 215.70 220.63 210.16 225.70 M 220.62 247.61 C 219.34 248.55 221.09 249.60 221.66 250.33 C 249.42 277.93 277.04 305.69 304.78 333.32 C 305.94 334.99 307.47 333.33 308.41 332.38 C 317.01 323.65 325.76 315.07 334.37 306.35 C 335.65 305.41 333.98 304.32 333.40 303.60 C 305.18 275.64 277.37 247.26 248.99 219.47 C 239.29 228.59 230.08 238.24 220.62 247.61 M 316.19 331.74 C 319.79 335.49 323.57 339.07 327.17 342.82 C 329.54 345.18 332.28 347.97 335.93 347.71 C 339.01 347.72 341.03 345.01 343.12 343.12 C 345.25 340.75 348.55 338.59 348.30 334.99 C 348.42 330.65 344.59 327.93 341.90 325.11 C 338.57 322.07 335.78 318.41 332.09 315.80 C 326.74 321.06 321.38 326.32 316.19 331.74 Z" />
<path fill="#010101" opacity="1.00" d=" M 116.39 28.45 C 137.57 25.95 159.54 30.29 177.98 41.08 C 192.19 49.32 204.33 61.07 213.10 74.95 C 225.83 95.20 231.14 120.21 226.71 143.80 C 223.29 168.80 208.79 191.62 189.01 206.99 C 170.86 220.91 147.84 228.53 124.94 227.68 C 102.97 226.87 81.33 218.61 64.52 204.43 C 44.93 188.22 31.86 164.35 29.01 139.06 C 27.89 125.01 28.60 110.63 33.19 97.20 C 40.81 73.65 57.50 53.21 78.99 40.94 C 90.40 34.20 103.28 30.18 116.39 28.45 M 118.27 33.25 C 89.75 36.03 62.97 52.57 47.87 76.93 C 38.32 92.09 33.17 110.07 33.52 128.00 C 33.18 149.03 40.54 169.98 53.52 186.47 C 70.61 208.62 98.01 222.22 125.97 222.66 C 148.66 223.33 171.55 215.54 189.01 201.01 C 204.22 188.61 215.19 171.22 220.16 152.27 C 222.47 140.61 224.36 128.62 222.60 116.75 C 219.63 86.71 200.92 58.84 174.38 44.50 C 157.42 35.06 137.54 31.21 118.27 33.25 Z" />
</g>
<g id="#0b1a66ff">
<path fill="#0b1a66" opacity="1.00" d=" M 118.36 5.43 C 138.29 3.77 158.63 7.03 177.01 14.95 C 199.79 24.66 219.46 41.51 232.49 62.58 C 246.93 85.45 253.18 113.28 250.39 140.14 C 247.86 166.29 236.71 191.57 218.80 210.83 C 202.66 228.50 181.17 241.19 157.92 246.87 C 133.52 252.76 107.28 251.29 83.86 242.17 C 48.75 228.92 20.81 198.48 10.54 162.39 C 4.26 140.54 3.99 116.94 10.01 95.00 C 17.25 68.10 34.10 43.92 56.83 27.83 C 74.78 14.92 96.32 7.11 118.36 5.43 M 116.39 28.45 C 103.28 30.18 90.40 34.20 78.99 40.94 C 57.50 53.21 40.81 73.65 33.19 97.20 C 28.60 110.63 27.89 125.01 29.01 139.06 C 31.86 164.35 44.93 188.22 64.52 204.43 C 81.33 218.61 102.97 226.87 124.94 227.68 C 147.84 228.53 170.86 220.91 189.01 206.99 C 208.79 191.62 223.29 168.80 226.71 143.80 C 231.14 120.21 225.83 95.20 213.10 74.95 C 204.33 61.07 192.19 49.32 177.98 41.08 C 159.54 30.29 137.57 25.95 116.39 28.45 Z" />
</g>
</svg>
