<svg xmlns="http://www.w3.org/2000/svg" xmlns:xlink="http://www.w3.org/1999/xlink" id="Layer_1" x="0px" y="0px" viewBox="0 0 18.3 21.2" style="enable-background:new 0 0 18.3 21.2;" xml:space="preserve"> <style type="text/css"> .st0{fill:url(#SVGID_1_);} .st1{fill:url(#SVGID_2_);} .st2{fill:url(#SVGID_3_);} </style> <g> <linearGradient id="SVGID_1_" gradientUnits="userSpaceOnUse" x1="9.1" y1="4.2" x2="9.1" y2="13.4"> <stop offset="0" style="stop-color:#2867b8"></stop> <stop offset="1" style="stop-color:#33afe3"></stop> </linearGradient> <path class="st0" d="M7.1,13.4C5.4,12.6,4.3,10.9,4.3,9c0-2.7,2.2-4.8,4.8-4.8c2.3,0,4.3,1.6,4.8,3.9l-2,0.4 c-0.3-1.3-1.4-2.3-2.8-2.3C7.5,6.2,6.3,7.5,6.3,9c0,1.1,0.6,2.1,1.6,2.6L7.1,13.4z"></path> </g> <g> <linearGradient id="SVGID_2_" gradientUnits="userSpaceOnUse" x1="9.1" y1="0" x2="9.1" y2="16.8"> <stop offset="0" style="stop-color:#2867b8"></stop> <stop offset="1" style="stop-color:#33afe3"></stop> </linearGradient> <path class="st1" d="M5.3,16.8C2.1,15.3,0,12.2,0,8.8C0,3.9,4.1,0,9.1,0s9.1,3.9,9.1,8.8h-2C16.2,5,13,2,9.1,2S2,5,2,8.8 c0,2.6,1.6,5,4.1,6.2L5.3,16.8z"></path> </g> <g> <linearGradient id="SVGID_3_" gradientUnits="userSpaceOnUse" x1="13.468" y1="9.2343" x2="13.468" y2="21.2041"> <stop offset="0" style="stop-color:#2867b8"></stop> <stop offset="1" style="stop-color:#33afe3"></stop> </linearGradient> <path class="st2" d="M9.5,17.6L9.5,17.6l1.5-0.8h0.1c0.4-0.2,0.9-0.1,1.1,0.3l0,0l0,0l2.1,3.6l0.1,0.2c0.2,0.3,0.7,0.4,1.1,0.2 l2.4-1.4c0.4-0.2,0.5-0.7,0.4-1L18,18.4l-2-3.5l-0.1-0.2c-0.2-0.4,0-0.8,0.3-1h0.1l1.5-0.9l0,0c0.3-0.2,0.4-0.5,0.2-0.8 c-0.1-0.1-0.1-0.2-0.2-0.2h-0.1L11,9.3c-0.2-0.1-0.5-0.1-0.7,0.1C10,9.5,9.9,9.7,9.8,9.9L8.6,17v0.1c0,0.1,0,0.2,0.1,0.3 C8.9,17.7,9.2,17.8,9.5,17.6z"></path> </g> </svg>