<svg height="39.993750000000006" version="1.1" width="236.5712495356907" xmlns="http://www.w3.org/2000/svg" xmlns:xlink="http://www.w3.org/1999/xlink" style="overflow: hidden; position: relative; top: -0.666667px;" viewBox="137.85145046430932 198.749475 236.5712495356907 39.993750000000006" preserveAspectRatio="xMinYMin" id="main_svg"><desc style="-webkit-tap-highlight-color: rgba(0, 0, 0, 0);">Created with Logotizer</desc><defs style="-webkit-tap-highlight-color: rgba(0, 0, 0, 0);"><linearGradient id="gradient_bfdor4ubv1qlwb3ngjuok" x1="1.8369701987210297e-16" y1="0" x2="0" y2="1" style="-webkit-tap-highlight-color: rgba(0, 0, 0, 0);"><stop offset="10%" stop-color="#bdb224" stop-opacity="1" style="-webkit-tap-highlight-color: rgba(0, 0, 0, 0);"></stop><stop offset="80%" stop-color="#fff13a" stop-opacity="1" style="-webkit-tap-highlight-color: rgba(0, 0, 0, 0);"></stop></linearGradient><linearGradient id="gradient_d79cwv2indptocnyacwy7j" x1="1.8369701987210297e-16" y1="0" x2="0" y2="1" style="-webkit-tap-highlight-color: rgba(0, 0, 0, 0);"><stop offset="44%" stop-color="#e7da34" stop-opacity="1" style="-webkit-tap-highlight-color: rgba(0, 0, 0, 0);"></stop><stop offset="91%" stop-color="#fff823" stop-opacity="1" style="-webkit-tap-highlight-color: rgba(0, 0, 0, 0);"></stop></linearGradient><linearGradient id="gradient_jl7jjhu2jgliumwjj150m" x1="1.8369701987210297e-16" y1="0" x2="0" y2="1" style="-webkit-tap-highlight-color: rgba(0, 0, 0, 0);"><stop offset="44%" stop-color="#e7da34" stop-opacity="1" style="-webkit-tap-highlight-color: rgba(0, 0, 0, 0);"></stop><stop offset="91%" stop-color="#fff823" stop-opacity="1" style="-webkit-tap-highlight-color: rgba(0, 0, 0, 0);"></stop></linearGradient></defs><path fill="url(#gradient_jl7jjhu2jgliumwjj150m)" stroke="#000000" d="M-152.16,-1.59L-152.16,-8.34Q-148.7,-6.8,-146.29,-6.16Q-143.89,-5.53,-141.9,-5.53Q-139.51,-5.53,-138.23,-6.45Q-136.95,-7.36,-136.95,-9.16Q-136.95,-10.17,-137.52,-10.96Q-138.08,-11.74,-139.17,-12.47Q-140.26,-13.2,-143.61,-14.79Q-146.75,-16.27,-148.32,-17.63Q-149.89,-18.98,-150.83,-20.79Q-151.77,-22.59,-151.77,-25.01Q-151.77,-29.55,-148.68,-32.16Q-145.6,-34.76,-140.16,-34.76Q-137.49,-34.76,-135.07,-34.13Q-132.64,-33.49,-129.99,-32.34L-132.34,-26.7Q-135.08,-27.82,-136.87,-28.27Q-138.66,-28.71,-140.4,-28.71Q-142.46,-28.71,-143.56,-27.75Q-144.66,-26.79,-144.66,-25.24Q-144.66,-24.28,-144.22,-23.57Q-143.77,-22.85,-142.8,-22.18Q-141.83,-21.52,-138.2,-19.78Q-133.39,-17.48,-131.61,-15.18Q-129.83,-12.87,-129.83,-9.52Q-129.83,-4.88,-133.17,-2.2Q-136.51,0.47,-142.46,0.47Q-147.95,0.47,-152.16,-1.59ZM-124.32,-9.12L-124.32,-26.2L-117.17,-26.2L-117.17,-10.9Q-117.17,-8.06,-116.16,-6.64Q-115.16,-5.23,-112.95,-5.23Q-109.95,-5.23,-108.62,-7.23Q-107.28,-9.23,-107.28,-13.88L-107.28,-26.2L-100.13,-26.2L-100.13,0L-105.62,0L-106.58,-3.35L-106.95,-3.35Q-108.1,-1.52,-110.21,-0.53Q-112.32,0.47,-115.02,0.47Q-119.63,0.47,-121.98,-2Q-124.32,-4.48,-124.32,-9.12ZM-92.63,11.53L-92.63,-26.2L-86.82,-26.2L-85.81,-22.8L-85.48,-22.8Q-82.98,-26.7,-78.05,-26.7Q-73.41,-26.7,-70.79,-23.11Q-68.16,-19.52,-68.16,-13.15Q-68.16,-8.95,-69.39,-5.86Q-70.63,-2.77,-72.9,-1.15Q-75.17,0.47,-78.24,0.47Q-82.86,0.47,-85.48,-2.88L-85.86,-2.88Q-85.48,0.4,-85.48,0.91L-85.48,11.53L-92.63,11.53M-85.48,-13.2Q-85.48,-8.98,-84.23,-7.15Q-82.98,-5.32,-80.26,-5.32Q-75.45,-5.32,-75.45,-13.24Q-75.45,-17.11,-76.64,-19.04Q-77.82,-20.98,-80.35,-20.98Q-83,-20.98,-84.22,-19.35Q-85.44,-17.72,-85.48,-13.97L-85.48,-13.2ZM-63.85,-12.91Q-63.85,-19.5,-60.56,-23.1Q-57.27,-26.7,-51.45,-26.7Q-45.9,-26.7,-42.8,-23.53Q-39.71,-20.37,-39.71,-14.79L-39.71,-11.32L-56.61,-11.32Q-56.49,-8.27,-54.8,-6.56Q-53.12,-4.85,-50.07,-4.85Q-47.7,-4.85,-45.59,-5.34Q-43.48,-5.84,-41.19,-6.91L-41.19,-1.38Q-43.06,-0.45,-45.2,0.01Q-47.33,0.47,-50.4,0.47Q-56.73,0.47,-60.29,-3.02Q-63.85,-6.52,-63.85,-12.91M-56.45,-16.08L-46.41,-16.08Q-46.46,-18.73,-47.8,-20.17Q-49.13,-21.61,-51.41,-21.61Q-53.68,-21.61,-54.97,-20.17Q-56.26,-18.73,-56.45,-16.08ZM-33.9,0L-33.9,-26.2L-28.48,-26.2L-27.43,-21.8L-27.08,-21.8Q-25.86,-24,-23.79,-25.35Q-21.71,-26.7,-19.27,-26.7Q-17.82,-26.7,-16.86,-26.48L-17.4,-19.78Q-18.27,-20.02,-19.51,-20.02Q-22.93,-20.02,-24.84,-18.26Q-26.75,-16.5,-26.75,-13.34L-26.75,0L-33.9,0ZM-14.42,-9.94L-14.42,-15.8L-1.84,-15.8L-1.84,-9.94L-14.42,-9.94ZM2.38,-17.18Q2.38,-25.48,7.13,-30.12Q11.88,-34.76,20.29,-34.76Q25.56,-34.76,30.46,-32.65L28.05,-26.84Q24.3,-28.71,20.24,-28.71Q15.53,-28.71,12.7,-25.55Q9.86,-22.38,9.86,-17.04Q9.86,-11.46,12.14,-8.52Q14.43,-5.58,18.79,-5.58Q21.06,-5.58,23.41,-6.05L23.41,-13.2L16.91,-13.2L16.91,-19.24L30.51,-19.24L30.51,-1.48Q27.2,-0.4,24.29,0.04Q21.37,0.47,18.32,0.47Q10.56,0.47,6.47,-4.09Q2.38,-8.65,2.38,-17.18ZM36.51,-13.15Q36.51,-19.57,39.86,-23.13Q43.21,-26.7,49.28,-26.7Q53.05,-26.7,55.94,-25.05Q58.82,-23.41,60.37,-20.34Q61.91,-17.27,61.91,-13.15Q61.91,-6.75,58.54,-3.14Q55.16,0.47,49.14,0.47Q45.37,0.47,42.48,-1.18Q39.6,-2.84,38.05,-5.93Q36.51,-9.02,36.51,-13.15M43.8,-13.15Q43.8,-9.26,45.07,-7.27Q46.35,-5.27,49.23,-5.27Q52.09,-5.27,53.35,-7.25Q54.6,-9.23,54.6,-13.15Q54.6,-17.04,53.34,-18.98Q52.07,-20.93,49.19,-20.93Q46.33,-20.93,45.06,-19Q43.8,-17.06,43.8,-13.15ZM67.82,0L67.82,-26.2L73.28,-26.2L74.24,-22.85L74.64,-22.85Q75.84,-24.75,77.93,-25.72Q80.03,-26.7,82.7,-26.7Q87.27,-26.7,89.64,-24.22Q92.01,-21.75,92.01,-17.09L92.01,0L84.86,0L84.86,-15.3Q84.86,-18.14,83.85,-19.56Q82.84,-20.98,80.64,-20.98Q77.64,-20.98,76.3,-18.97Q74.97,-16.97,74.97,-12.33L74.97,0L67.82,0ZM99.37,0L99.37,-36.47L106.52,-36.47L106.52,-20.2L106.14,-14.25L106.23,-14.25L109.35,-18.23L116.69,-26.2L124.75,-26.2L114.34,-14.84L125.38,0L117.13,0L109.59,-10.62L106.52,-8.16L106.52,0L99.37,0ZM127.4,-7.83Q127.4,-12,130.32,-13.98Q133.23,-15.96,139.12,-16.17L143.66,-16.31L143.66,-17.46Q143.66,-21.45,139.59,-21.45Q136.45,-21.45,132.2,-19.55L129.84,-24.38Q134.36,-26.74,139.87,-26.74Q145.14,-26.74,147.95,-24.45Q150.77,-22.15,150.77,-17.46L150.77,0L145.77,0L144.39,-3.56L144.2,-3.56Q142.4,-1.29,140.49,-0.41Q138.58,0.47,135.51,0.47Q131.73,0.47,129.57,-1.69Q127.4,-3.84,127.4,-7.83M134.73,-7.78Q134.73,-4.76,138.2,-4.76Q140.69,-4.76,142.18,-6.19Q143.66,-7.62,143.66,-9.98L143.66,-12.14L140.9,-12.05Q137.78,-11.95,136.26,-10.92Q134.73,-9.89,134.73,-7.78Z" opacity="1" fill-opacity="1" stroke-width="2" transform="matrix(0.6,0,0,0.6,281.7977,229.4151)" style="-webkit-tap-highlight-color: rgba(0, 0, 0, 0); opacity: 1; fill-opacity: 1;"></path><path fill="url(#gradient_bfdor4ubv1qlwb3ngjuok)" stroke="#000000" d="M148.9,60C148.20000000000002,62.9,143,63.7,141.70000000000002,63.7S139.70000000000002,64.3,140.20000000000002,66.3S142.70000000000002,68.7,144.4,77.7S146,129,146,129C145.7,131.7,143.8,134,141,134H123C120.2,134,118,131.8,118,129V114.9C106.9,115.9,94,116.2,85.1,116.30000000000001V116.4H74.8V116.30000000000001C66,116.20000000000002,53,115.80000000000001,41.9,114.9V129C41.9,131.8,39.699999999999996,134,36.9,134H19C16.2,134,14.3,131.7,14,129C14,129,13.9,86.7,15.6,77.7S19.4,68.3,19.8,66.3S19.5,63.699999999999996,18.3,63.699999999999996S11.8,62.8,11.100000000000001,59.99999999999999S13.500000000000002,54.39999999999999,18.6,52.29999999999999S23.700000000000003,56.69999999999999,23.6,57.89999999999999S23.400000000000002,61.29999999999999,24.6,60.099999999999994S28.700000000000003,52.699999999999996,30.1,50.199999999999996S40,31.3,45.4,28.3S52.4,26.1,54.099999999999994,26.1H106.1C107.69999999999999,26.1,109.39999999999999,25.400000000000002,114.8,28.3S128.8,47.8,130.1,50.2S134.4,58.800000000000004,135.6,60.1S136.7,59.2,136.6,57.9S136.5,50.199999999999996,141.6,52.3S149.6,57.099999999999994,148.9,60ZM21.7,73.4C20.599999999999998,79.4,23.7,81.9,23.7,81.9C26.7,84.7,31.2,85,35.7,85.2C40.2,85.3,50.1,83.9,54.5,85.60000000000001C49,80.9,43.2,76.50000000000001,37.1,72.60000000000001C31.6,69.00000000000001,22.8,67.4,21.700000000000003,73.4ZM119.5,53.900000000000006L109.7,36.50000000000001S108.4,34.00000000000001,104.5,34.00000000000001H56.5C52.6,34.00000000000001,51.3,36.50000000000001,51.3,36.50000000000001L41.5,53.900000000000006C39.5,57.50000000000001,39.9,59.00000000000001,40.5,59.900000000000006S44.1,61.10000000000001,48.8,61.400000000000006C65.69999999999999,63.60000000000001,96,63.2,112.19999999999999,61.400000000000006C116.89999999999999,61.00000000000001,119.89999999999999,60.800000000000004,120.49999999999999,59.900000000000006S121.59999999999998,57.60000000000001,119.49999999999999,53.900000000000006ZM138.5,73.4C137.4,67.4,128.6,69.10000000000001,123.3,72.5C117.2,76.4,111.39999999999999,80.7,105.9,85.5C110.2,83.8,120.2,85.2,124.60000000000001,85.1S133.60000000000002,84.69999999999999,136.60000000000002,81.89999999999999C136.50000000000003,81.89999999999999,139.60000000000002,79.39999999999999,138.50000000000003,73.39999999999999Z" stroke-width="2" opacity="1" fill-opacity="1" stroke-opacity="1" transform="matrix(0.3,0,0,0.3,134.5509,194.0406)" style="-webkit-tap-highlight-color: rgba(0, 0, 0, 0); opacity: 1; fill-opacity: 1;"></path></svg>